<?xml version="1.0" standalone="no"?>
<!DOCTYPE svg PUBLIC "-//W3C//DTD SVG 20010904//EN"
 "http://www.w3.org/TR/2001/REC-SVG-20010904/DTD/svg10.dtd">
<svg version="1.0" xmlns="http://www.w3.org/2000/svg"
 width="96.000000pt" height="96.000000pt" viewBox="0 0 96.000000 96.000000"
 preserveAspectRatio="xMidYMid meet">
<metadata>
Created by potrace 1.11, written by Peter Selinger 2001-2013
</metadata>
<g transform="translate(0.000000,96.000000) scale(0.100000,-0.100000)"
fill="#000000" stroke="none">
<path d="M0 480 l0 -480 480 0 480 0 0 480 0 480 -480 0 -480 0 0 -480z m380
195 c25 -13 60 -60 60 -80 0 -16 -37 -1 -59 25 -39 45 -74 49 -111 12 -28 -29
-30 -35 -30 -112 0 -77 2 -83 30 -112 37 -37 72 -33 111 12 14 17 33 30 42 30
21 0 21 -3 2 -40 -35 -68 -144 -80 -196 -22 -47 52 -51 202 -7 258 36 45 103
57 158 29z m340 0 c0 -12 -13 -15 -55 -15 l-55 0 0 -155 c0 -148 -1 -155 -20
-155 -19 0 -20 7 -20 155 l0 155 -50 0 c-38 0 -50 4 -50 15 0 13 21 15 125 15
104 0 125 -2 125 -15z m-196 -432 c158 -13 212 -14 264 -5 83 14 94 8 15 -9
-47 -10 -92 -9 -233 2 -96 8 -244 14 -328 14 -84 0 -143 3 -130 7 43 12 213 8
412 -9z"/>
</g>
</svg>
